
<svg width="32" height="32" viewBox="0 0 512 512" xmlns="http://www.w3.org/2000/svg">
  <defs>
    <linearGradient id="bg" x1="0%" y1="0%" x2="100%" y2="100%">
      <stop offset="0%" style="stop-color:#667eea"/>
      <stop offset="100%" style="stop-color:#764ba2"/>
    </linearGradient>
  </defs>
  <rect x="32" y="32" width="448" height="448" rx="96" fill="url(#bg)"/>
  <rect x="80" y="120" width="352" height="272" rx="16" fill="#1f2937"/>
  <rect x="80" y="120" width="352" height="40" rx="16" fill="#4b5563"/>
  <rect x="80" y="144" width="352" height="16" fill="#4b5563"/>
  <circle cx="104" cy="140" r="6" fill="#ef4444"/>
  <circle cx="128" cy="140" r="6" fill="#f59e0b"/>
  <circle cx="152" cy="140" r="6" fill="#10b981"/>
  <rect x="96" y="180" width="120" height="8" rx="4" fill="#10b981" opacity="0.8"/>
  <rect x="96" y="200" width="160" height="8" rx="4" fill="#3b82f6" opacity="0.8"/>
  <rect x="96" y="220" width="100" height="8" rx="4" fill="#f59e0b" opacity="0.8"/>
  <path d="M248 320L216 352H232L200 384L232 352H216L248 320Z" fill="#fbbf24"/>
</svg>